#!OML:ASF H:\LiuWeirdWalks\Patient Classification 1\Patient 1\Session 1\male.ASF
:FULLY-SPECIFIED
:DEGREES
3043
root -2.46612 17.8745 -26.784 180.731 20.5795 168.404
lowerback 12.8519 0.639936 -0.944798
upperback 1.37219 2.7065 11.6698
thorax -6.43586 2.06828 12.9105
lowerneck -22.3669 2.6824 11.6071
upperneck 22.2561 3.3786 -12.3896
head 11.3492 1.11199 -6.0122
rclavicle 3.4191e-014 -8.5875e-014
rhumerus -45.222 -15.3885 -40.881
rradius 41.5558
rwrist -16.1672
rhand -14.0389 0.420885
rfingers 7.12502
rthumb 12.0916 -29.2097
lclavicle 3.4191e-014 -8.5875e-014
lhumerus -47.0501 -10.655 95.028
lradius 49.5409
lwrist 2.53457
lhand -1.75102 -3.49032
lfingers 7.12502
lthumb 23.9122 25.0409
rfemur -26.3784 -26.6574 11.9435
rtibia 43.2518
rfoot -21.566 -32.0852
rtoes 9.49504
lfemur -12.1889 6.1275 -33.0664
ltibia 24.9941
lfoot -5.5667 21.2114
ltoes -7.90319
3044
root -2.44513 17.8757 -26.8138 180.562 21.3716 168.47
lowerback 12.9509 0.60783 -0.807278
upperback 1.41704 2.7056 11.7562
thorax -6.4425 2.07038 12.9292
lowerneck -22.2368 2.63947 11.6238
upperneck 22.1867 3.30661 -12.3575
head 11.2871 1.0858 -6.00906
rclavicle 2.94201e-014 -3.49861e-014
rhumerus -45.1747 -15.3907 -40.864
rradius 41.6923
rwrist -16.5365
rhand -14.3848 0.485174
rfingers 7.12502
rthumb 11.7581 -29.1648
lclavicle 2.94201e-014 -3.49861e-014
lhumerus -47.4137 -11.2632 95.6813
lradius 49.5795
lwrist 2.1764
lhand -0.496472 -3.54056
lfingers 7.12502
lthumb 25.1148 24.8277
rfemur -26.0704 -26.258 12.0295
rtibia 43.0091
rfoot -21.4552 -31.7063
rtoes 9.46103
lfemur -12.078 6.31238 -32.9042
ltibia 25.2902
lfoot -5.61488 21.7644
ltoes -7.93651
3045
root -2.42351 17.8773 -26.8427 180.384 22.1569 168.517
lowerback 13.0579 0.569736 -0.68398
upperback 1.45944 2.69192 11.8311
thorax -6.45314 2.06536 12.9459
lowerneck -22.1386 2.59626 11.6471
upperneck 22.1414 3.23085 -12.3256
head 11.2398 1.05781 -6.00931
rclavicle 1.43125e-014 1.90833e-014
rhumerus -45.1335 -15.3369 -40.8912
rradius 41.8314
rwrist -16.9475
rhand -14.8637 0.435475
rfingers 7.12502
rthumb 11.2962 -29.2403
lclavicle 1.43125e-014 1.90833e-014
lhumerus -47.7689 -11.8363 96.2998
lradius 49.6688
lwrist 1.85751
lhand 0.86327 -3.58946
lfingers 7.12502
lthumb 26.417 24.5899
rfemur -25.7552 -25.8808 12.0987
rtibia 42.758
rfoot -21.3268 -31.3241
rtoes 9.41319
lfemur -12.0019 6.50336 -32.7586
ltibia 25.6607
lfoot -5.63745 22.2968
ltoes -8.05123
3046
root -2.40111 17.88 -26.8704 180.219 22.9462 168.582
lowerback 13.1639 0.529621 -0.540951
upperback 1.49972 2.6789 11.9048
thorax -6.46488 2.06018 12.9487
lowerneck -22.0661 2.55207 11.671
upperneck 22.0975 3.15044 -12.2945
head 11.1974 1.02667 -6.01117
rclavicle 9.46215e-014 1.59028e-013
rhumerus -45.1035 -15.26 -40.9483
rradius 41.9782
rwrist -17.445
rhand -15.3811 0.319289
rfingers 7.12502
rthumb 10.7972 -29.3832
lclavicle 9.46215e-014 1.59028e-013
lhumerus -48.1003 -12.3676 96.8725
lradius 49.7852
lwrist 1.52301
lhand 2.30512 -3.67356
lfingers 7.12502
lthumb 27.7964 24.2909
rfemur -25.4615 -25.5045 12.2014
rtibia 42.5233
rfoot -21.1932 -30.9583
rtoes 9.34486
lfemur -12.0046 6.71027 -32.5894
ltibia 26.163
lfoot -5.66756 22.8112
ltoes -8.20773
3047
root -2.37851 17.8835 -26.897 180.068 23.7529 168.641
lowerback 13.2536 0.498217 -0.3967
upperback 1.53612 2.67571 11.9742
thorax -6.47374 2.0592 12.9436
lowerneck -22.0207 2.4852 11.6345
upperneck 22.11 3.05215 -12.2232
head 11.1769 0.987657 -5.99253
rclavicle -3.4191e-014 -9.22361e-014
rhumerus -45.0816 -15.1906 -41.0068
rradius 42.1118
rwrist -17.8982
rhand -15.8766 0.14209
rfingers 7.12502
rthumb 10.3192 -29.5847
lclavicle -3.4191e-014 -9.22361e-014
lhumerus -48.408 -12.8596 97.4155
lradius 49.9171
lwrist 1.19498
lhand 3.81554 -3.76739
lfingers 7.12502
lthumb 29.2396 23.9549
rfemur -25.2022 -25.1159 12.3154
rtibia 42.2943
rfoot -21.0357 -30.6191
rtoes 9.24729
lfemur -12.0859 6.93951 -32.4256
ltibia 26.7699
lfoot -5.67399 23.3017
ltoes -8.43363
3048
root -2.3559 17.8878 -26.9235 179.928 24.5712 168.691
lowerback 13.3224 0.467355 -0.238592
upperback 1.57075 2.6677 12.0205
thorax -6.46967 2.0524 12.9025
lowerneck -22.003 2.40669 11.5903
upperneck 22.1742 2.93182 -12.1147
head 11.177 0.942513 -5.96438
rclavicle 3.10104e-014 2.22639e-013
rhumerus -45.0711 -15.1074 -41.1304
rradius 42.2686
rwrist -18.4004
rhand -16.3901 -0.133206
rfingers 7.12502
rthumb 9.82383 -29.884
lclavicle 3.10104e-014 2.22639e-013
lhumerus -48.6845 -13.3172 97.8861
lradius 50.0593
lwrist 0.895054
lhand 5.25635 -3.8485
lfingers 7.12502
lthumb 30.6145 23.6257
rfemur -24.975 -24.7314 12.4323
rtibia 42.0758
rfoot -20.8563 -30.2932
rtoes 9.11877
lfemur -12.2488 7.18015 -32.2712
ltibia 27.4926
lfoot -5.66522 23.7711
ltoes -8.68771
3049
root -2.33329 17.892 -26.9499 179.79 25.4049 168.711
lowerback 13.3708 0.386916 -0.156737
upperback 1.63665 2.56999 12.047
thorax -6.40099 1.99732 12.9027
lowerneck -22.0569 2.40085 11.6176
upperneck 22.328 2.88356 -11.9892
head 11.2359 0.937354 -5.93642
rclavicle 6.44062e-014 -9.54166e-014
rhumerus -44.8711 -15.0207 -41.4183
rradius 42.3727
rwrist -18.8121
rhand -16.7965 -0.392938
rfingers 7.12502
rthumb 9.43166 -30.1619
lclavicle 6.44062e-014 -9.54166e-014
lhumerus -48.8749 -13.584 98.1734
lradius 50.2145
lwrist 0.651747
lhand 6.66643 -3.91592
lfingers 7.12502
lthumb 31.9581 23.2984
rfemur -24.7814 -24.3447 12.5294
rtibia 41.8764
rfoot -20.6651 -29.9748
rtoes 8.96876
lfemur -12.4936 7.45242 -32.1448
ltibia 28.3329
lfoot -5.6188 24.196
ltoes -9.01027
3050
root -2.31073 17.8956 -26.9775 179.64 26.2391 168.699
lowerback 13.4147 0.333081 -0.0603942
upperback 1.67732 2.50799 12.0593
thorax -6.36437 1.95974 12.87
lowerneck -22.1337 2.33077 11.5443
upperneck 22.5645 2.77079 -11.8029
head 11.3184 0.903892 -5.88128
rclavicle 1.90833e-014 0
rhumerus -44.7512 -15.0215 -41.6086
rradius 42.4315
rwrist -19.0881
rhand -17.0619 -0.613024
rfingers 7.12502
rthumb 9.17559 -30.3934
lclavicle 1.90833e-014 0
lhumerus -49.073 -13.8887 98.4772
lradius 50.3604
lwrist 0.472095
lhand 7.97754 -3.95404
lfingers 7.12502
lthumb 33.2057 23.0025
rfemur -24.5993 -23.976 12.5918
rtibia 41.6993
rfoot -20.4722 -29.6462
rtoes 8.79619
lfemur -12.8011 7.75773 -32.0474
ltibia 29.287
lfoot -5.58086 24.581
ltoes -9.43982
3051
root -2.28774 17.8988 -27.0053 179.477 27.068 168.648
lowerback 13.455 0.269728 -0.0156382
upperback 1.70688 2.42365 12.0693
thorax -6.33452 1.91211 12.8718
lowerneck -22.2152 2.26087 11.4633
upperneck 22.8381 2.66711 -11.6241
head 11.4179 0.874663 -5.82803
rclavicle -5.725e-014 -2.16278e-013
rhumerus -44.6075 -14.9774 -41.8271
rradius 42.4858
rwrist -19.3102
rhand -17.2373 -0.820982
rfingers 7.12502
rthumb 9.00639 -30.6087
lclavicle -5.725e-014 -2.16278e-013
lhumerus -49.2576 -14.0997 98.7362
lradius 50.5152
lwrist 0.464537
lhand 9.14412 -3.90105
lfingers 7.12502
lthumb 34.3141 22.8124
rfemur -24.429 -23.6112 12.6162
rtibia 41.5431
rfoot -20.2965 -29.3113
rtoes 8.61015
lfemur -13.1767 8.08326 -31.9794
ltibia 30.3486
lfoot -5.4902 24.909
ltoes -10.0596
3052
root -2.26435 17.9014 -27.033 179.301 27.9276 168.564
lowerback 13.5048 0.232942 0.00269264
upperback 1.70854 2.37244 12.0796
thorax -6.34896 1.8833 12.8849
lowerneck -22.2707 2.16187 11.3388
upperneck 23.1122 2.54363 -11.4504
head 11.5099 0.833947 -5.77175
rclavicle -1.35174e-014 -6.36111e-015
rhumerus -44.5276 -14.9433 -41.9582
rradius 42.504
rwrist -19.3956
rhand -17.2379 -0.930293
rfingers 7.12502
rthumb 9.00576 -30.7181
lclavicle -1.35174e-014 -6.36111e-015
lhumerus -49.46 -14.2808 99.0006
lradius 50.6591
lwrist 0.545134
lhand 10.2336 -3.82705
lfingers 7.12502
lthumb 35.3478 22.6471
rfemur -24.2789 -23.2379 12.6144
rtibia 41.3996
rfoot -20.1125 -28.9533
rtoes 8.3962
lfemur -13.6213 8.45572 -31.9331
ltibia 31.5117
lfoot -5.36827 25.1821
ltoes -10.7996
3053
root -2.2407 17.9034 -27.0602 179.112 28.8103 168.46
lowerback 13.571 0.238979 0.0276894
upperback 1.67748 2.38506 12.097
thorax -6.4231 1.88939 12.8907
lowerneck -22.2886 2.01021 11.1324
upperneck 23.3504 2.37724 -11.2774
head 11.5747 0.767706 -5.70571
rclavicle -1.66979e-014 9.54166e-015
rhumerus -44.5712 -14.9385 -41.9552
rradius 42.5037
rwrist -19.3308
rhand -17.1724 -0.984412
rfingers 7.12502
rthumb 9.06903 -30.7694
lclavicle -1.66979e-014 9.54166e-015
lhumerus -49.6875 -14.4984 99.3298
lradius 50.7951
lwrist 0.797257
lhand 11.1297 -3.64518
lfingers 7.12502
lthumb 36.1971 22.6227
rfemur -24.129 -22.8417 12.595
rtibia 41.2573
rfoot -19.9529 -28.5712
rtoes 8.18872
lfemur -14.1221 8.85059 -31.8918
ltibia 32.7648
lfoot -5.19355 25.3944
ltoes -11.5837
